PathFileType	4	(X/Y/Z)	C:/Users/beibeiliu/ov580/test_trc/User2\sequence.21_training_dense_left.trc
DataRate	CameraRate	NumFrames	NumMarkers	Units	OrigDataRate	OrigDataStartFrame	OrigNumFrames
120	120	7	19	mm	120	121	322
Frame#	Time	ThumbCMC			ThumbMCP			ThumbIP			ThumbTip			IndexMCP			IndexPIP			IndexTip			MiddleMCP			MiddlePIP			MiddleTip			RingMCP			RingPIP			RingTip			PinkyMCP			PinkyPIP			PinkyTip			BackHand1			BackHand2			BackHand3	
		X0	Y0	Z0	X1	Y1	Z1	X2	Y2	Z2	X3	Y3	Z3	X4	Y4	Z4	X5	Y5	Z5	X6	Y6	Z6	X7	Y7	Z7	X8	Y8	Z8	X9	Y9	Z9	X10	Y10	Z10	X11	Y11	Z11	X12	Y12	Z12	X13	Y13	Z13	X14	Y14	Z14	X15	Y15	Z15	X16	Y16	Z16	X17	Y17	Z17	X18	Y18	Z18	
120	1	-219.625	40.4305	56.5048	-186.467	42.8027	39.1172	-157.28	39.2119	16.8959	-137.913	34.6998	4.88208	-210.108	6.25354	-17.6418	-184.946	9.09561	-28.1241	-155.856	15.3807	-33.0041	-203.437	-16.8892	-12.1611	-169.314	-0.403774	-9.75915	-177.676	12.7941	24.9135	-194.156	-30.1891	-3.33959	-165.177	-16.3989	-2.35609	-177.422	-1.41213	32.8771	-188.775	-44.602	11.2137	-160.901	-28.0118	5.4127	-158.37	-8.74538	26.1642	-233.817	-32.303	48.7488	-241.452	-25.4457	79.6995	-250.288	6.18065	49.7802	
121	1.00833	-222.221	39.9067	53.982	-189.442	44.9551	38.3106	-161.307	42.9163	14.8168	-138.554	36.3584	-2.04436	-210.241	2.66348	-16.5128	-185.116	7.27519	-28.8549	-152.299	14.2965	-31.3152	-198.71	-17.2759	-15.1797	-171.215	0.108495	-13.374	-177.881	12.6287	25.2692	-188.608	-33.8647	-1.66386	-161.713	-17.1702	0.772191	-174.546	-1.11613	31.4249	-187.103	-47.857	15.883	-158.195	-32.0795	5.5005	-156.57	-8.42519	27.3372	-230.884	-32.8337	45.3999	-240.687	-26.9464	81.4166	-251.896	1.24164	51.9942	
122	1.01667	-224.945	34.5234	56.0434	-192.767	42.4751	33.8567	-162.721	44.0878	9.89731	-142.944	37.6805	-3.88382	-210.9	0.6028	-18.866	-187.91	6.24496	-29.8915	-160.305	16.0897	-34.4193	-200.194	-19.6728	-14.6009	-171.088	0.225628	-11.7394	-183.307	16.7991	23.689	-185.932	-34.0668	-3.39502	-161.048	-15.0522	0.583749	-173.569	-0.678377	30.1316	-182.625	-49.0345	12.5565	-158.692	-30.9829	4.7628	-161.012	-5.52956	25.4788	-228.251	-37.7507	45.6832	-241.468	-29.7459	80.6297	-251.907	-0.207188	51.4986	
123	1.025	-226.356	36.8752	50.2766	-193.534	42.8868	28.8595	-166.578	41.1895	7.76534	-145.208	39.0856	-5.00231	-216.17	1.23457	-19.3438	-186.384	4.61017	-33.3492	-157.811	17.2198	-36.9135	-201.863	-19.009	-15.7386	-170.855	-1.95777	-10.8354	-183.207	16.8513	21.6852	-191.513	-32.6626	-3.39018	-163.354	-14.662	-1.36825	-177.989	0.955203	29.1242	-186.874	-47.5646	15.4877	-161.126	-29.2632	2.57108	-157.065	-7.10895	23.7308	-229.11	-37.1481	50.1967	-240.71	-28.2152	77.4101	-251.775	-4.91635	54.0412	
124	1.03333	-225.056	35.3274	51.0767	-193.602	39.5019	30.8697	-166.133	40.9095	4.96607	-146.928	34.3258	-7.15213	-217.903	-0.723215	-17.7205	-191.922	2.55749	-32.1504	-162.346	12.5444	-38.0197	-206.903	-17.5949	-16.2177	-172.855	-1.79581	-11.8348	-182.351	15.9266	21.6851	-193.672	-34.9773	-4.26881	-167.784	-16.591	-6.50398	-181.961	1.01014	26.5539	-189.45	-50.2786	14.5187	-164.113	-31.5304	-0.0230166	-160.354	-7.5485	21.4471	-233.1	-34.4569	45.4498	-241.706	-28.7909	81.2061	-251.326	-1.25254	54.6255	
125	1.04167	-221.719	37.6201	53.4223	-189.629	41.5848	33.0899	-164.299	37.6911	7.58151	-146.869	29.3195	-9.01618	-223.752	5.35546	-17.2433	-198.067	7.59376	-34.6102	-166.458	11.0469	-40.6357	-209.572	-14.8512	-18.7675	-177.211	-2.87429	-13.3917	-183.619	12.7985	23.8167	-200.094	-34.2856	-7.46532	-173.238	-13.8356	-5.92817	-182.928	-3.35637	27.686	-198.865	-49.5747	10.9697	-172.064	-34.7252	-5.30327	-162.977	-13.3819	16.9867	-236.888	-33.807	46.4073	-244.374	-26.1617	78.0921	-252.416	3.62904	55.2648	
126	1.05	-214.179	39.0985	56.2506	-185.844	36.3805	34.9213	-161.261	31.8416	3.41105	-146.401	22.1595	-12.7301	-224.375	12.8418	-19.6361	-201.39	12.4836	-34.6934	-169.03	8.83768	-42.2998	-221.309	-11.5289	-15.2954	-186.192	-1.99017	-20.0496	-183.417	11.3144	18.9408	-207.964	-30.2785	-12.8624	-181.856	-18.4581	-8.94881	-186.735	-5.50538	23.4382	-211.549	-49.2574	6.37735	-185.909	-36.3796	-10.1986	-172.394	-17.9997	15.4379	-245.836	-26.9898	44.088	-245.266	-20.2768	82.4859	-253.155	8.27959	56.2206	
